<svg width="23" height="24" viewBox="0 0 23 24" fill="none" xmlns="http://www.w3.org/2000/svg">
<path opacity="0.3" d="M11.5 21.8182C5.14855 21.8182 0 16.9331 0 10.9091V13.0909C0 19.1149 5.14855 24 11.5 24C17.8503 24 23 19.1149 23 13.0909V10.9091C23 16.9331 17.8503 21.8182 11.5 21.8182Z" fill="#ABABAB"/>
<path d="M11.5 21.8182C17.8513 21.8182 23 16.934 23 10.9091C23 4.88417 17.8513 0 11.5 0C5.14873 0 0 4.88417 0 10.9091C0 16.934 5.14873 21.8182 11.5 21.8182Z" fill="white"/>
<path d="M11.5 13.0909C12.7703 13.0909 13.8 12.1141 13.8 10.9091C13.8 9.7041 12.7703 8.72726 11.5 8.72726C10.2298 8.72726 9.20001 9.7041 9.20001 10.9091C9.20001 12.1141 10.2298 13.0909 11.5 13.0909Z" fill="#ABABAB"/>
</svg>
