<svg width="19" height="21" viewBox="0 0 19 21" fill="none" xmlns="http://www.w3.org/2000/svg">
<path opacity="0.3" d="M9.5 19.0909C4.25315 19.0909 0 14.8165 0 9.54546V11.4545C0 16.7255 4.25315 21 9.5 21C14.7459 21 19 16.7255 19 11.4545V9.54546C19 14.8165 14.7459 19.0909 9.5 19.0909Z" fill="#ABABAB"/>
<path d="M9.5 19.0909C14.7467 19.0909 19 14.8173 19 9.54545C19 4.27365 14.7467 0 9.5 0C4.25329 0 0 4.27365 0 9.54545C0 14.8173 4.25329 19.0909 9.5 19.0909Z" fill="white"/>
<path d="M9.5001 11.4545C10.5494 11.4545 11.4001 10.5998 11.4001 9.54546C11.4001 8.4911 10.5494 7.63637 9.5001 7.63637C8.45076 7.63637 7.6001 8.4911 7.6001 9.54546C7.6001 10.5998 8.45076 11.4545 9.5001 11.4545Z" fill="#ABABAB"/>
</svg>
